<svg width="113" height="112" viewBox="0 0 113 112" fill="none" xmlns="http://www.w3.org/2000/svg">
<g clip-path="url(#clip0_1822_378)">
<rect width="112" height="112" transform="translate(0.544922)" fill="#26A3F3"/>
<rect width="112" height="112" transform="translate(0.544922)" fill="#53B6F5"/>
<path d="M65.9594 65.6619L33.7169 82.004C31.9262 82.9116 29.99 81.0628 30.8139 79.2321L45.1531 47.3707C45.4023 46.8168 45.8764 46.3958 46.4558 46.2137L63.4711 40.8662C64.8063 40.4466 66.1761 41.4078 66.2356 42.8061L67.1236 63.673C67.1591 64.5069 66.7039 65.2846 65.9594 65.6619Z" fill="white" stroke="white" stroke-width="3.19249"/>
<path d="M87.1314 25.7928C87.8949 26.5821 88.3463 27.9558 87.641 29.28L87.6431 29.2807L67.4981 67.3215C67.178 67.9261 66.7006 68.4313 66.1191 68.7848L65.863 68.9263L29.5678 87.3132L29.5671 87.3111C28.2631 87.9819 26.9169 87.544 26.1331 86.7953C25.3429 86.04 24.8425 84.701 25.4695 83.3585L25.4702 83.3578L42.6873 45.9385C43.0544 45.1409 43.6873 44.4956 44.4778 44.1134L83.6684 25.1624L83.6677 25.1631C85.0126 24.5085 86.3679 25.0041 87.1314 25.7928ZM60.764 54.1904C60.5588 53.1645 59.8181 52.3341 58.8354 52.0076L58.6351 51.9496L46.0757 48.7552L30.8239 81.9042L63.0428 65.5828L60.764 54.1904Z" fill="black"/>
</g>
<defs>
<clipPath id="clip0_1822_378">
<rect width="112" height="112" fill="white" transform="translate(0.544922)"/>
</clipPath>
</defs>
</svg>
