<svg width="117" height="29" viewBox="0 0 117 29" fill="none" xmlns="http://www.w3.org/2000/svg">
<path d="M3 0.5H74.5V28.5H3C1.61929 28.5 0.5 27.3807 0.5 26V3C0.5 1.61929 1.61929 0.5 3 0.5Z" fill="#100D0D"/>
<path d="M3 0.5H74.5V28.5H3C1.61929 28.5 0.5 27.3807 0.5 26V3C0.5 1.61929 1.61929 0.5 3 0.5Z" stroke="#635943"/>
<path d="M9.51914 9.06H10.7231V17.852H15.6791V19H9.51914V9.06ZM17.6337 17.964H20.6157V12.616H17.7737V11.58H21.7917V17.964H24.3537V19H17.6337V17.964ZM20.5037 9.046H21.7357V10.418H20.5037V9.046ZM29.3042 19.168C28.6229 19.168 28.0209 19.0093 27.4982 18.692C26.9849 18.3747 26.5882 17.922 26.3082 17.334C26.0282 16.746 25.8882 16.0647 25.8882 15.29C25.8882 14.5153 26.0282 13.834 26.3082 13.246C26.5882 12.658 26.9849 12.2053 27.4982 11.888C28.0209 11.5707 28.6229 11.412 29.3042 11.412C30.1349 11.412 30.8209 11.636 31.3622 12.084C31.9129 12.532 32.2629 13.1667 32.4122 13.988L31.1802 14.072C31.0682 13.5867 30.8442 13.2087 30.5082 12.938C30.1815 12.6673 29.7802 12.532 29.3042 12.532C28.6229 12.532 28.0862 12.7793 27.6942 13.274C27.3115 13.7593 27.1202 14.4313 27.1202 15.29C27.1202 16.1487 27.3115 16.8253 27.6942 17.32C28.0862 17.8053 28.6229 18.048 29.3042 18.048C29.7989 18.048 30.2142 17.9033 30.5502 17.614C30.8955 17.3247 31.1242 16.9093 31.2362 16.368L32.4682 16.452C32.3095 17.2827 31.9455 17.9453 31.3762 18.44C30.8162 18.9253 30.1255 19.168 29.3042 19.168ZM37.6287 19.168C36.9381 19.168 36.3361 19.0093 35.8227 18.692C35.3094 18.3747 34.9127 17.9267 34.6327 17.348C34.3621 16.76 34.2267 16.074 34.2267 15.29C34.2267 14.5153 34.3621 13.834 34.6327 13.246C34.9127 12.658 35.3047 12.2053 35.8087 11.888C36.3127 11.5707 36.9007 11.412 37.5727 11.412C38.2167 11.412 38.7861 11.566 39.2807 11.874C39.7847 12.1727 40.1721 12.616 40.4427 13.204C40.7227 13.792 40.8627 14.492 40.8627 15.304V15.654H35.4587C35.4961 16.438 35.7014 17.0353 36.0747 17.446C36.4574 17.8473 36.9754 18.048 37.6287 18.048C38.1047 18.048 38.4967 17.9407 38.8047 17.726C39.1221 17.502 39.3461 17.194 39.4767 16.802L40.7367 16.9C40.5407 17.5813 40.1627 18.132 39.6027 18.552C39.0521 18.9627 38.3941 19.168 37.6287 19.168ZM39.5747 14.618C39.5187 13.9273 39.3134 13.4093 38.9587 13.064C38.6041 12.7093 38.1421 12.532 37.5727 12.532C36.9941 12.532 36.5181 12.7093 36.1447 13.064C35.7807 13.4187 35.5521 13.9367 35.4587 14.618H39.5747ZM43.0413 11.58H44.1193L44.1473 12.91C44.3339 12.4153 44.6279 12.042 45.0293 11.79C45.4306 11.538 45.8973 11.412 46.4293 11.412C47.2413 11.412 47.8573 11.6733 48.2773 12.196C48.7066 12.7187 48.9213 13.3953 48.9213 14.226V19H47.7453V14.562C47.7453 13.862 47.6193 13.3347 47.3673 12.98C47.1246 12.6253 46.7279 12.448 46.1773 12.448C45.5893 12.448 45.1133 12.6347 44.7493 13.008C44.3946 13.372 44.2173 13.89 44.2173 14.562V19H43.0413V11.58ZM54.4318 19.168C53.8065 19.168 53.2558 19.0607 52.7798 18.846C52.3131 18.622 51.9445 18.3233 51.6738 17.95C51.4031 17.5673 51.2491 17.138 51.2118 16.662L52.4438 16.578C52.5185 17.0447 52.7238 17.4087 53.0598 17.67C53.3958 17.922 53.8531 18.048 54.4318 18.048C54.9918 18.048 55.4211 17.9687 55.7198 17.81C56.0185 17.642 56.1678 17.3947 56.1678 17.068C56.1678 16.844 56.1165 16.6667 56.0138 16.536C55.9111 16.396 55.7198 16.2793 55.4398 16.186C55.1691 16.0833 54.7585 15.9853 54.2078 15.892C53.4985 15.7707 52.9385 15.612 52.5278 15.416C52.1265 15.22 51.8371 14.982 51.6598 14.702C51.4918 14.422 51.4078 14.072 51.4078 13.652C51.4078 12.9893 51.6551 12.4527 52.1498 12.042C52.6445 11.622 53.3351 11.412 54.2218 11.412C55.0898 11.412 55.7758 11.636 56.2798 12.084C56.7931 12.532 57.1105 13.1013 57.2318 13.792L55.9998 13.876C55.9158 13.4653 55.7151 13.1387 55.3978 12.896C55.0898 12.6533 54.6931 12.532 54.2078 12.532C53.6851 12.532 53.2885 12.6347 53.0178 12.84C52.7471 13.0453 52.6118 13.316 52.6118 13.652C52.6118 13.904 52.6725 14.1047 52.7938 14.254C52.9151 14.394 53.1018 14.5107 53.3538 14.604C53.6151 14.688 53.9838 14.772 54.4598 14.856C55.2251 14.9773 55.8178 15.1313 56.2378 15.318C56.6578 15.5047 56.9518 15.738 57.1198 16.018C57.2878 16.2887 57.3718 16.6387 57.3718 17.068C57.3718 17.712 57.0965 18.2253 56.5458 18.608C55.9951 18.9813 55.2905 19.168 54.4318 19.168ZM62.8123 19.168C62.1217 19.168 61.5197 19.0093 61.0063 18.692C60.493 18.3747 60.0963 17.9267 59.8163 17.348C59.5457 16.76 59.4103 16.074 59.4103 15.29C59.4103 14.5153 59.5457 13.834 59.8163 13.246C60.0963 12.658 60.4883 12.2053 60.9923 11.888C61.4963 11.5707 62.0843 11.412 62.7563 11.412C63.4003 11.412 63.9697 11.566 64.4643 11.874C64.9683 12.1727 65.3557 12.616 65.6263 13.204C65.9063 13.792 66.0463 14.492 66.0463 15.304V15.654H60.6423C60.6797 16.438 60.885 17.0353 61.2583 17.446C61.641 17.8473 62.159 18.048 62.8123 18.048C63.2883 18.048 63.6803 17.9407 63.9883 17.726C64.3057 17.502 64.5297 17.194 64.6603 16.802L65.9203 16.9C65.7243 17.5813 65.3463 18.132 64.7863 18.552C64.2357 18.9627 63.5777 19.168 62.8123 19.168ZM64.7583 14.618C64.7023 13.9273 64.497 13.4093 64.1423 13.064C63.7877 12.7093 63.3257 12.532 62.7563 12.532C62.1777 12.532 61.7017 12.7093 61.3283 13.064C60.9643 13.4187 60.7357 13.9367 60.6423 14.618H64.7583Z" fill="#FFDC83"/>
<mask id="path-3-inside-1_2074_1480" fill="white">
<path d="M75 0H114C115.657 0 117 1.34315 117 3V26C117 27.6569 115.657 29 114 29H75V0Z"/>
</mask>
<path d="M75 0H114C115.657 0 117 1.34315 117 3V26C117 27.6569 115.657 29 114 29H75V0Z" fill="#FFDC83"/>
<path d="M75 -1H114C116.209 -1 118 0.790861 118 3H116C116 1.89543 115.105 1 114 1H75V-1ZM118 26C118 28.2091 116.209 30 114 30H75V28H114C115.105 28 116 27.1046 116 26H118ZM75 29V0V29ZM114 -1C116.209 -1 118 0.790861 118 3V26C118 28.2091 116.209 30 114 30V28C115.105 28 116 27.1046 116 26V3C116 1.89543 115.105 1 114 1V-1Z" fill="#635943" mask="url(#path-3-inside-1_2074_1480)"/>
<path d="M85.044 10.67V19H83.84V9.06H85.66L87.2 15.976L88.74 9.06H90.56V19H89.356V10.67L87.732 17.88H86.668L85.044 10.67ZM92.5145 17.852H94.9925V10.208H92.5145V9.06H98.6745V10.208H96.1965V17.852H98.6745V19H92.5145V17.852ZM103.387 10.208H100.349V9.06H107.629V10.208H104.591V19H103.387V10.208Z" fill="#100D0D"/>
</svg>
