<svg width="254" height="29" viewBox="0 0 254 29" fill="none" xmlns="http://www.w3.org/2000/svg">
<path d="M3 0.5H85.5V28.5H3C1.61929 28.5 0.5 27.3807 0.5 26V3C0.5 1.61929 1.61929 0.5 3 0.5Z" fill="white"/>
<path d="M3 0.5H85.5V28.5H3C1.61929 28.5 0.5 27.3807 0.5 26V3C0.5 1.61929 1.61929 0.5 3 0.5Z" stroke="#635943"/>
<g clip-path="url(#clip0_2074_1457)">
<mask id="mask0_2074_1457" style="mask-type:luminance" maskUnits="userSpaceOnUse" x="12" y="6" width="16" height="17">
<path d="M28 6.5H12V22.5H28V6.5Z" fill="white"/>
</mask>
<g mask="url(#mask0_2074_1457)">
<path fill-rule="evenodd" clip-rule="evenodd" d="M17.8406 6.53941C17.6312 6.5396 17.4239 6.58104 17.2305 6.66137C17.0371 6.74169 16.8614 6.85932 16.7135 7.00754C16.5656 7.15576 16.4483 7.33167 16.3684 7.52521C16.2885 7.71876 16.2475 7.92615 16.2477 8.13555C16.2475 8.34493 16.2886 8.55229 16.3685 8.74581C16.4484 8.93932 16.5657 9.11519 16.7136 9.26338C16.8616 9.41157 17.0372 9.52917 17.2306 9.60947C17.4239 9.68978 17.6312 9.73121 17.8406 9.73141H19.4335V8.13555C19.4337 7.92615 19.3927 7.71876 19.3128 7.52521C19.2329 7.33167 19.1156 7.15576 18.9677 7.00754C18.8197 6.85932 18.6441 6.74169 18.4507 6.66137C18.2573 6.58104 18.05 6.5396 17.8406 6.53941ZM17.8406 10.7957H13.5929C13.3835 10.7959 13.1762 10.8373 12.9829 10.9176C12.7895 10.9979 12.6138 11.1155 12.4659 11.2637C12.318 11.4119 12.2007 11.5878 12.1208 11.7813C12.0409 11.9748 11.9998 12.1822 12 12.3916C11.9998 12.601 12.0408 12.8084 12.1207 13.0019C12.2006 13.1955 12.3179 13.3713 12.4658 13.5196C12.6137 13.6678 12.7894 13.7854 12.9828 13.8657C13.1762 13.9461 13.3835 13.9875 13.5929 13.9877H17.8406C18.05 13.9875 18.2573 13.9461 18.4507 13.8657C18.6441 13.7854 18.8197 13.6678 18.9677 13.5196C19.1156 13.3713 19.2329 13.1955 19.3128 13.0019C19.3927 12.8084 19.4337 12.601 19.4335 12.3916C19.4337 12.1822 19.3926 11.9748 19.3127 11.7813C19.2327 11.5878 19.1155 11.4119 18.9675 11.2637C18.8197 11.1155 18.644 10.9979 18.4506 10.9176C18.2573 10.8373 18.05 10.7959 17.8406 10.7957Z" fill="#100D0D"/>
<path fill-rule="evenodd" clip-rule="evenodd" d="M27.9286 12.3916C27.9288 12.1822 27.8877 11.9748 27.8078 11.7813C27.7279 11.5878 27.6106 11.4119 27.4627 11.2637C27.3147 11.1155 27.1391 10.9979 26.9457 10.9176C26.7523 10.8373 26.5451 10.7959 26.3357 10.7957C26.1263 10.7959 25.9191 10.8373 25.7257 10.9176C25.5323 10.9979 25.3567 11.1155 25.2087 11.2637C25.0608 11.4119 24.9435 11.5878 24.8636 11.7813C24.7837 11.9748 24.7426 12.1822 24.7428 12.3916V13.9877H26.3357C26.5451 13.9875 26.7524 13.9461 26.9458 13.8657C27.1392 13.7854 27.3149 13.6678 27.4627 13.5196C27.6107 13.3713 27.7279 13.1955 27.8079 13.0019C27.8878 12.8084 27.9288 12.601 27.9286 12.3916ZM23.6809 12.3916V8.13555C23.6811 7.92615 23.6401 7.71876 23.5602 7.52521C23.4803 7.33167 23.363 7.15576 23.2151 7.00754C23.0671 6.85932 22.8915 6.74169 22.6981 6.66137C22.5047 6.58104 22.2974 6.5396 22.088 6.53941C21.8786 6.5396 21.6713 6.58104 21.4779 6.66137C21.2845 6.74169 21.1089 6.85932 20.9609 7.00754C20.813 7.15576 20.6957 7.33167 20.6158 7.52521C20.5359 7.71876 20.4949 7.92615 20.4951 8.13555V12.3916C20.4949 12.601 20.5359 12.8084 20.6158 13.0019C20.6957 13.1955 20.813 13.3713 20.9609 13.5196C21.1089 13.6678 21.2845 13.7854 21.4779 13.8657C21.6713 13.9461 21.8786 13.9875 22.088 13.9877C22.2974 13.9875 22.5047 13.9461 22.6981 13.8657C22.8915 13.7854 23.0671 13.6678 23.2151 13.5196C23.363 13.3713 23.4803 13.1955 23.5602 13.0019C23.6401 12.8084 23.6811 12.601 23.6809 12.3916Z" fill="#100D0D"/>
<path fill-rule="evenodd" clip-rule="evenodd" d="M22.088 22.5C22.2974 22.4998 22.5047 22.4583 22.6981 22.3781C22.8915 22.2977 23.0671 22.1801 23.2151 22.0319C23.363 21.8837 23.4803 21.7077 23.5602 21.5142C23.6401 21.3207 23.6811 21.1133 23.6809 20.9039C23.6811 20.6945 23.6401 20.4871 23.5601 20.2936C23.4801 20.1001 23.3629 19.9242 23.2149 19.776C23.0671 19.6279 22.8914 19.5103 22.698 19.4299C22.5047 19.3496 22.2974 19.3082 22.088 19.308H20.4951V20.9039C20.4949 21.1133 20.5359 21.3207 20.6158 21.5142C20.6957 21.7077 20.813 21.8837 20.9609 22.0319C21.1089 22.1801 21.2845 22.2977 21.4779 22.3781C21.6713 22.4583 21.8786 22.4998 22.088 22.5ZM22.088 18.2437H26.3357C26.5451 18.2435 26.7523 18.2021 26.9457 18.1218C27.1391 18.0415 27.3147 17.9239 27.4627 17.7757C27.6106 17.6275 27.7279 17.4516 27.8078 17.2581C27.8877 17.0646 27.9288 16.8572 27.9286 16.6479C27.9288 16.4385 27.8878 16.2311 27.8079 16.0375C27.7279 15.8439 27.6107 15.6681 27.4627 15.5199C27.3149 15.3716 27.1392 15.254 26.9458 15.1737C26.7524 15.0933 26.5451 15.0519 26.3357 15.0517H22.088C21.8786 15.0519 21.6713 15.0933 21.4779 15.1737C21.2845 15.254 21.1089 15.3716 20.9609 15.5199C20.813 15.6681 20.6957 15.8439 20.6158 16.0375C20.5359 16.2311 20.4949 16.4385 20.4951 16.6479C20.4949 16.8572 20.5359 17.0646 20.6159 17.2581C20.6959 17.4516 20.8131 17.6275 20.9611 17.7757C21.1089 17.9239 21.2846 18.0415 21.478 18.1218C21.6713 18.2021 21.8786 18.2435 22.088 18.2437Z" fill="#100D0D"/>
<path fill-rule="evenodd" clip-rule="evenodd" d="M12 16.6479C11.9998 16.8572 12.0409 17.0646 12.1208 17.2581C12.2007 17.4516 12.318 17.6275 12.4659 17.7757C12.6138 17.9239 12.7895 18.0415 12.9829 18.1218C13.1762 18.2021 13.3835 18.2435 13.5929 18.2437C13.8023 18.2435 14.0096 18.2021 14.2029 18.1218C14.3963 18.0415 14.5719 17.9239 14.7198 17.7757C14.8678 17.6275 14.985 17.4516 15.065 17.2581C15.1449 17.0646 15.186 16.8572 15.1858 16.6479V15.0517H13.5929C13.3835 15.0519 13.1761 15.0933 12.9827 15.1737C12.7893 15.254 12.6136 15.3717 12.4657 15.5199C12.3178 15.6682 12.2005 15.8441 12.1206 16.0377C12.0407 16.2313 11.9997 16.4384 12 16.6479ZM16.2477 16.6479V20.9039C16.2475 21.1133 16.2885 21.3207 16.3684 21.5142C16.4483 21.7077 16.5656 21.8837 16.7135 22.0319C16.8615 22.1801 17.0371 22.2977 17.2305 22.3781C17.4239 22.4583 17.6312 22.4998 17.8406 22.5C18.05 22.4998 18.2573 22.4583 18.4507 22.3781C18.6441 22.2977 18.8197 22.1801 18.9677 22.0319C19.1156 21.8837 19.2329 21.7077 19.3128 21.5142C19.3927 21.3207 19.4337 21.1133 19.4335 20.9039V16.6481C19.4337 16.4387 19.3927 16.2313 19.3128 16.0378C19.2329 15.8443 19.1156 15.6683 18.9677 15.5201C18.8197 15.3719 18.6441 15.2543 18.4507 15.1739C18.2573 15.0937 18.05 15.0522 17.8406 15.052C17.6312 15.0522 17.4239 15.0937 17.2305 15.1739C17.0371 15.2543 16.8615 15.3719 16.7135 15.5201C16.5656 15.6683 16.4483 15.8443 16.3684 16.0378C16.2885 16.2313 16.2475 16.4385 16.2477 16.6479Z" fill="#100D0D"/>
</g>
</g>
<path d="M36.3677 19.224C35.677 19.224 35.0563 19.084 34.5057 18.804C33.9643 18.5147 33.5303 18.1133 33.2037 17.6C32.877 17.0867 32.6857 16.494 32.6297 15.822L33.8897 15.738C33.983 16.4753 34.249 17.0447 34.6877 17.446C35.1263 17.8473 35.6957 18.048 36.3957 18.048C37.0863 18.048 37.6137 17.9173 37.9777 17.656C38.351 17.3947 38.5377 17.0213 38.5377 16.536C38.5377 16.2 38.463 15.92 38.3137 15.696C38.1643 15.4627 37.889 15.2433 37.4877 15.038C37.0957 14.8327 36.517 14.6227 35.7517 14.408C35.0423 14.2027 34.4777 13.9833 34.0577 13.75C33.647 13.5167 33.3437 13.2367 33.1477 12.91C32.961 12.574 32.8677 12.1587 32.8677 11.664C32.8677 11.1133 32.9983 10.6233 33.2597 10.194C33.5303 9.76467 33.913 9.43333 34.4077 9.2C34.9117 8.95733 35.4997 8.836 36.1717 8.836C37.161 8.836 37.9543 9.13 38.5517 9.718C39.149 10.2967 39.5037 11.0573 39.6157 12L38.3557 12.084C38.2717 11.4493 38.043 10.9453 37.6697 10.572C37.2963 10.1987 36.7877 10.012 36.1437 10.012C35.5277 10.012 35.0377 10.1613 34.6737 10.46C34.3097 10.7493 34.1277 11.132 34.1277 11.608C34.1277 11.9253 34.193 12.182 34.3237 12.378C34.4637 12.574 34.697 12.7467 35.0237 12.896C35.3597 13.0453 35.8543 13.2133 36.5077 13.4C37.329 13.6333 37.973 13.89 38.4397 14.17C38.9157 14.4407 39.261 14.7673 39.4757 15.15C39.6903 15.5327 39.7977 16.004 39.7977 16.564C39.7977 17.0773 39.653 17.5393 39.3637 17.95C39.0743 18.3513 38.6683 18.664 38.1457 18.888C37.6323 19.112 37.0397 19.224 36.3677 19.224ZM44.5102 11.048C44.5102 10.7493 44.4262 10.516 44.2582 10.348C44.0902 10.18 43.8569 10.096 43.5582 10.096H41.8082V9.06H43.6142C44.2955 9.06 44.8089 9.23733 45.1542 9.592C45.5089 9.93733 45.6862 10.4507 45.6862 11.132V17.964H48.2482V19H41.5282V17.964H44.5102V11.048ZM52.0227 19.168C51.3134 19.168 50.7254 18.9813 50.2587 18.608C49.7921 18.2347 49.5587 17.7493 49.5587 17.152C49.5587 16.5267 49.7454 16.0367 50.1187 15.682C50.4921 15.3273 51.0894 15.0707 51.9107 14.912L54.4027 14.408C54.4027 13.7827 54.2627 13.316 53.9827 13.008C53.7027 12.6907 53.2921 12.532 52.7507 12.532C52.2467 12.532 51.8454 12.644 51.5467 12.868C51.2574 13.092 51.0567 13.4233 50.9447 13.862L49.6987 13.764C49.8387 13.0453 50.1747 12.476 50.7067 12.056C51.2481 11.6267 51.9294 11.412 52.7507 11.412C53.6467 11.412 54.3421 11.6827 54.8367 12.224C55.3314 12.756 55.5787 13.4933 55.5787 14.436V17.516C55.5787 17.684 55.6114 17.8007 55.6767 17.866C55.7514 17.9313 55.8681 17.964 56.0267 17.964H56.5027V19C56.3534 19.0187 56.1481 19.028 55.8867 19.028C55.4761 19.028 55.1494 18.944 54.9067 18.776C54.6734 18.5987 54.5194 18.3233 54.4447 17.95C54.2394 18.314 53.9174 18.608 53.4787 18.832C53.0401 19.056 52.5547 19.168 52.0227 19.168ZM52.1347 18.132C52.8721 18.132 53.4321 17.9453 53.8147 17.572C54.2067 17.1987 54.4027 16.6947 54.4027 16.06V15.416L52.1347 15.864C51.6401 15.9573 51.2901 16.0973 51.0847 16.284C50.8887 16.4707 50.7907 16.7227 50.7907 17.04C50.7907 17.3853 50.9074 17.656 51.1407 17.852C51.3834 18.0387 51.7147 18.132 52.1347 18.132ZM61.5933 19.168C60.9119 19.168 60.3099 19.0093 59.7873 18.692C59.2739 18.3747 58.8773 17.922 58.5973 17.334C58.3173 16.746 58.1773 16.0647 58.1773 15.29C58.1773 14.5153 58.3173 13.834 58.5973 13.246C58.8773 12.658 59.2739 12.2053 59.7873 11.888C60.3099 11.5707 60.9119 11.412 61.5933 11.412C62.4239 11.412 63.1099 11.636 63.6513 12.084C64.2019 12.532 64.5519 13.1667 64.7013 13.988L63.4693 14.072C63.3573 13.5867 63.1333 13.2087 62.7973 12.938C62.4706 12.6673 62.0693 12.532 61.5933 12.532C60.9119 12.532 60.3753 12.7793 59.9833 13.274C59.6006 13.7593 59.4093 14.4313 59.4093 15.29C59.4093 16.1487 59.6006 16.8253 59.9833 17.32C60.3753 17.8053 60.9119 18.048 61.5933 18.048C62.0879 18.048 62.5033 17.9033 62.8393 17.614C63.1846 17.3247 63.4133 16.9093 63.5253 16.368L64.7573 16.452C64.5986 17.2827 64.2346 17.9453 63.6653 18.44C63.1053 18.9253 62.4146 19.168 61.5933 19.168ZM66.8518 9.06H68.0278V15.57L71.6398 11.58H73.2078L70.2818 14.73L73.3478 19H71.9198L69.4838 15.528L68.0278 17.068V19H66.8518V9.06Z" fill="#100D0D"/>
<mask id="path-8-inside-1_2074_1457" fill="white">
<path d="M86 0H251C252.657 0 254 1.34315 254 3V26C254 27.6569 252.657 29 251 29H86V0Z"/>
</mask>
<path d="M86 0H251C252.657 0 254 1.34315 254 3V26C254 27.6569 252.657 29 251 29H86V0Z" fill="#FFDC83"/>
<path d="M86 -1H251C253.209 -1 255 0.790861 255 3H253C253 1.89543 252.105 1 251 1H86V-1ZM255 26C255 28.2091 253.209 30 251 30H86V28H251C252.105 28 253 27.1046 253 26H255ZM86 29V0V29ZM251 -1C253.209 -1 255 0.790861 255 3V26C255 28.2091 253.209 30 251 30V28C252.105 28 253 27.1046 253 26V3C253 1.89543 252.105 1 251 1V-1Z" fill="#635943" mask="url(#path-8-inside-1_2074_1457)"/>
<path d="M97.85 19.224C96.8607 19.224 96.072 18.9113 95.484 18.286C94.896 17.6607 94.588 16.8253 94.56 15.78L95.736 15.668C95.764 16.48 95.9507 17.082 96.296 17.474C96.6413 17.8567 97.1593 18.048 97.85 18.048C99.2407 18.048 99.936 17.2547 99.936 15.668V9.06H101.14V15.668C101.14 16.7693 100.841 17.6373 100.244 18.272C99.656 18.9067 98.858 19.224 97.85 19.224ZM106.595 19.168C105.913 19.168 105.316 19.0093 104.803 18.692C104.299 18.3747 103.907 17.9267 103.627 17.348C103.347 16.76 103.207 16.074 103.207 15.29C103.207 14.506 103.347 13.8247 103.627 13.246C103.907 12.658 104.299 12.2053 104.803 11.888C105.316 11.5707 105.913 11.412 106.595 11.412C107.267 11.412 107.859 11.5707 108.373 11.888C108.886 12.2053 109.283 12.658 109.563 13.246C109.843 13.8247 109.983 14.506 109.983 15.29C109.983 16.074 109.843 16.76 109.563 17.348C109.283 17.9267 108.886 18.3747 108.373 18.692C107.859 19.0093 107.267 19.168 106.595 19.168ZM106.595 18.048C107.276 18.048 107.803 17.8053 108.177 17.32C108.559 16.8253 108.751 16.1487 108.751 15.29C108.751 14.4313 108.559 13.7593 108.177 13.274C107.803 12.7793 107.276 12.532 106.595 12.532C105.913 12.532 105.381 12.7747 104.999 13.26C104.625 13.7453 104.439 14.422 104.439 15.29C104.439 16.158 104.625 16.8347 104.999 17.32C105.381 17.8053 105.913 18.048 106.595 18.048ZM111.909 17.964H114.891V12.616H112.049V11.58H116.067V17.964H118.629V19H111.909V17.964ZM114.779 9.046H116.011V10.418H114.779V9.046ZM120.528 11.58H121.606L121.634 12.91C121.82 12.4153 122.114 12.042 122.516 11.79C122.917 11.538 123.384 11.412 123.916 11.412C124.728 11.412 125.344 11.6733 125.764 12.196C126.193 12.7187 126.408 13.3953 126.408 14.226V19H125.232V14.562C125.232 13.862 125.106 13.3347 124.854 12.98C124.611 12.6253 124.214 12.448 123.664 12.448C123.076 12.448 122.6 12.6347 122.236 13.008C121.881 13.372 121.704 13.89 121.704 14.562V19H120.528V11.58ZM140.173 19.168C139.491 19.168 138.894 19.0093 138.381 18.692C137.877 18.3747 137.485 17.9267 137.205 17.348C136.925 16.76 136.785 16.074 136.785 15.29C136.785 14.506 136.925 13.8247 137.205 13.246C137.485 12.658 137.877 12.2053 138.381 11.888C138.894 11.5707 139.491 11.412 140.173 11.412C140.845 11.412 141.437 11.5707 141.951 11.888C142.464 12.2053 142.861 12.658 143.141 13.246C143.421 13.8247 143.561 14.506 143.561 15.29C143.561 16.074 143.421 16.76 143.141 17.348C142.861 17.9267 142.464 18.3747 141.951 18.692C141.437 19.0093 140.845 19.168 140.173 19.168ZM140.173 18.048C140.854 18.048 141.381 17.8053 141.755 17.32C142.137 16.8253 142.329 16.1487 142.329 15.29C142.329 14.4313 142.137 13.7593 141.755 13.274C141.381 12.7793 140.854 12.532 140.173 12.532C139.491 12.532 138.959 12.7747 138.577 13.26C138.203 13.7453 138.017 14.422 138.017 15.29C138.017 16.158 138.203 16.8347 138.577 17.32C138.959 17.8053 139.491 18.048 140.173 18.048ZM148.049 19.168C147.312 19.168 146.724 18.9207 146.285 18.426C145.847 17.922 145.627 17.2313 145.627 16.354V11.58H146.803V16.032C146.803 16.7507 146.929 17.2827 147.181 17.628C147.443 17.964 147.839 18.132 148.371 18.132C148.95 18.132 149.407 17.9453 149.743 17.572C150.079 17.1893 150.247 16.6667 150.247 16.004V11.58H151.423V19H150.303V17.796C150.098 18.2347 149.804 18.5753 149.421 18.818C149.039 19.0513 148.581 19.168 148.049 19.168ZM154.022 17.964H155.954V12.616H154.022V11.58H156.934L157.018 13.008C157.27 12.056 157.862 11.58 158.796 11.58H160.322V12.644H158.81C158.268 12.644 157.853 12.8073 157.564 13.134C157.274 13.4513 157.13 13.9133 157.13 14.52V17.964H159.482V19H154.022V17.964ZM173.947 19.168C173.265 19.168 172.663 19.0093 172.141 18.692C171.627 18.3747 171.231 17.922 170.951 17.334C170.671 16.746 170.531 16.0647 170.531 15.29C170.531 14.5153 170.671 13.834 170.951 13.246C171.231 12.658 171.627 12.2053 172.141 11.888C172.663 11.5707 173.265 11.412 173.947 11.412C174.777 11.412 175.463 11.636 176.005 12.084C176.555 12.532 176.905 13.1667 177.055 13.988L175.823 14.072C175.711 13.5867 175.487 13.2087 175.151 12.938C174.824 12.6673 174.423 12.532 173.947 12.532C173.265 12.532 172.729 12.7793 172.337 13.274C171.954 13.7593 171.763 14.4313 171.763 15.29C171.763 16.1487 171.954 16.8253 172.337 17.32C172.729 17.8053 173.265 18.048 173.947 18.048C174.441 18.048 174.857 17.9033 175.193 17.614C175.538 17.3247 175.767 16.9093 175.879 16.368L177.111 16.452C176.952 17.2827 176.588 17.9453 176.019 18.44C175.459 18.9253 174.768 19.168 173.947 19.168ZM182.145 19.168C181.464 19.168 180.867 19.0093 180.353 18.692C179.849 18.3747 179.457 17.9267 179.177 17.348C178.897 16.76 178.757 16.074 178.757 15.29C178.757 14.506 178.897 13.8247 179.177 13.246C179.457 12.658 179.849 12.2053 180.353 11.888C180.867 11.5707 181.464 11.412 182.145 11.412C182.817 11.412 183.41 11.5707 183.923 11.888C184.437 12.2053 184.833 12.658 185.113 13.246C185.393 13.8247 185.533 14.506 185.533 15.29C185.533 16.074 185.393 16.76 185.113 17.348C184.833 17.9267 184.437 18.3747 183.923 18.692C183.41 19.0093 182.817 19.168 182.145 19.168ZM182.145 18.048C182.827 18.048 183.354 17.8053 183.727 17.32C184.11 16.8253 184.301 16.1487 184.301 15.29C184.301 14.4313 184.11 13.7593 183.727 13.274C183.354 12.7793 182.827 12.532 182.145 12.532C181.464 12.532 180.932 12.7747 180.549 13.26C180.176 13.7453 179.989 14.422 179.989 15.29C179.989 16.158 180.176 16.8347 180.549 17.32C180.932 17.8053 181.464 18.048 182.145 18.048ZM186.9 11.58H187.978L188.006 12.672C188.137 12.2707 188.328 11.9627 188.58 11.748C188.832 11.524 189.131 11.412 189.476 11.412C190.241 11.412 190.708 11.8973 190.876 12.868C190.997 12.4107 191.198 12.056 191.478 11.804C191.758 11.5427 192.089 11.412 192.472 11.412C193.069 11.412 193.503 11.622 193.774 12.042C194.045 12.462 194.18 13.148 194.18 14.1V19H193.004V14.24C193.004 13.596 192.934 13.1387 192.794 12.868C192.654 12.588 192.435 12.448 192.136 12.448C191.828 12.448 191.581 12.602 191.394 12.91C191.217 13.2087 191.128 13.6613 191.128 14.268V19H189.952V14.24C189.952 13.6053 189.882 13.148 189.742 12.868C189.611 12.588 189.392 12.448 189.084 12.448C188.776 12.448 188.529 12.602 188.342 12.91C188.165 13.2087 188.076 13.6613 188.076 14.268V19H186.9V11.58ZM195.294 11.58H196.372L196.4 12.672C196.531 12.2707 196.722 11.9627 196.974 11.748C197.226 11.524 197.525 11.412 197.87 11.412C198.636 11.412 199.102 11.8973 199.27 12.868C199.392 12.4107 199.592 12.056 199.872 11.804C200.152 11.5427 200.484 11.412 200.866 11.412C201.464 11.412 201.898 11.622 202.168 12.042C202.439 12.462 202.574 13.148 202.574 14.1V19H201.398V14.24C201.398 13.596 201.328 13.1387 201.188 12.868C201.048 12.588 200.829 12.448 200.53 12.448C200.222 12.448 199.975 12.602 199.788 12.91C199.611 13.2087 199.522 13.6613 199.522 14.268V19H198.346V14.24C198.346 13.6053 198.276 13.148 198.136 12.868C198.006 12.588 197.786 12.448 197.478 12.448C197.17 12.448 196.923 12.602 196.736 12.91C196.559 13.2087 196.47 13.6613 196.47 14.268V19H195.294V11.58ZM206.811 19.168C206.074 19.168 205.486 18.9207 205.047 18.426C204.608 17.922 204.389 17.2313 204.389 16.354V11.58H205.565V16.032C205.565 16.7507 205.691 17.2827 205.943 17.628C206.204 17.964 206.601 18.132 207.133 18.132C207.712 18.132 208.169 17.9453 208.505 17.572C208.841 17.1893 209.009 16.6667 209.009 16.004V11.58H210.185V19H209.065V17.796C208.86 18.2347 208.566 18.5753 208.183 18.818C207.8 19.0513 207.343 19.168 206.811 19.168ZM212.867 11.58H213.945L213.973 12.91C214.16 12.4153 214.454 12.042 214.855 11.79C215.257 11.538 215.723 11.412 216.255 11.412C217.067 11.412 217.683 11.6733 218.103 12.196C218.533 12.7187 218.747 13.3953 218.747 14.226V19H217.571V14.562C217.571 13.862 217.445 13.3347 217.193 12.98C216.951 12.6253 216.554 12.448 216.003 12.448C215.415 12.448 214.939 12.6347 214.575 13.008C214.221 13.372 214.043 13.89 214.043 14.562V19H212.867V11.58ZM221.038 17.964H224.02V12.616H221.178V11.58H225.196V17.964H227.758V19H221.038V17.964ZM223.908 9.046H225.14V10.418H223.908V9.046ZM233.605 19C232.886 19 232.349 18.832 231.995 18.496C231.64 18.16 231.463 17.6467 231.463 16.956V12.616H229.013V11.58H231.463V9.62H232.639V11.58H235.593V12.616H232.639V16.956C232.639 17.3013 232.718 17.558 232.877 17.726C233.035 17.8847 233.278 17.964 233.605 17.964H235.593V19H233.605ZM238.639 20.064H239.493C239.745 20.064 239.932 20.022 240.053 19.938C240.184 19.8633 240.286 19.7373 240.361 19.56L240.627 18.86H240.221L237.463 11.58H238.751L241.005 17.768L243.119 11.58H244.407L241.397 19.938C241.257 20.3393 241.047 20.6333 240.767 20.82C240.487 21.0067 240.1 21.1 239.605 21.1H238.639V20.064Z" fill="#100D0D"/>
<defs>
<clipPath id="clip0_2074_1457">
<rect width="16" height="16" fill="white" transform="translate(12 6.5)"/>
</clipPath>
</defs>
</svg>
