<svg width="109" height="29" viewBox="0 0 109 29" fill="none" xmlns="http://www.w3.org/2000/svg">
<path d="M3 0.5H41.5V28.5H3C1.61929 28.5 0.5 27.3807 0.5 26V3C0.5 1.61929 1.61929 0.5 3 0.5Z" fill="#100D0D"/>
<path d="M3 0.5H41.5V28.5H3C1.61929 28.5 0.5 27.3807 0.5 26V3C0.5 1.61929 1.61929 0.5 3 0.5Z" stroke="#635943"/>
<path d="M9.7522 11.58H10.8302L10.8582 12.91C11.0449 12.4153 11.3389 12.042 11.7402 11.79C12.1415 11.538 12.6082 11.412 13.1402 11.412C13.9522 11.412 14.5682 11.6733 14.9882 12.196C15.4175 12.7187 15.6322 13.3953 15.6322 14.226V19H14.4562V14.562C14.4562 13.862 14.3302 13.3347 14.0782 12.98C13.8355 12.6253 13.4389 12.448 12.8882 12.448C12.3002 12.448 11.8242 12.6347 11.4602 13.008C11.1055 13.372 10.9282 13.89 10.9282 14.562V19H9.7522V11.58ZM17.9227 11.58H19.0147L19.0287 12.77C19.2527 12.3313 19.5607 11.9953 19.9527 11.762C20.3541 11.5287 20.8067 11.412 21.3107 11.412C22.0201 11.412 22.6127 11.5893 23.0887 11.944C23.5647 12.2893 23.9194 12.756 24.1527 13.344C24.3861 13.932 24.5027 14.5807 24.5027 15.29C24.5027 15.9993 24.3861 16.648 24.1527 17.236C23.9194 17.824 23.5647 18.2953 23.0887 18.65C22.6127 18.9953 22.0201 19.168 21.3107 19.168C20.8254 19.168 20.3821 19.0653 19.9807 18.86C19.5887 18.6547 19.2947 18.3747 19.0987 18.02V21.1H17.9227V11.58ZM21.1987 18.048C21.8427 18.048 22.3467 17.8053 22.7107 17.32C23.0841 16.8347 23.2707 16.158 23.2707 15.29C23.2707 14.422 23.0841 13.7453 22.7107 13.26C22.3467 12.7747 21.8427 12.532 21.1987 12.532C20.5454 12.532 20.0321 12.77 19.6587 13.246C19.2854 13.7127 19.0987 14.394 19.0987 15.29C19.0987 16.186 19.2807 16.872 19.6447 17.348C20.0181 17.8147 20.5361 18.048 21.1987 18.048ZM25.7573 11.58H26.8353L26.8633 12.672C26.9939 12.2707 27.1853 11.9627 27.4373 11.748C27.6893 11.524 27.9879 11.412 28.3333 11.412C29.0986 11.412 29.5653 11.8973 29.7333 12.868C29.8546 12.4107 30.0553 12.056 30.3353 11.804C30.6153 11.5427 30.9466 11.412 31.3293 11.412C31.9266 11.412 32.3606 11.622 32.6313 12.042C32.9019 12.462 33.0373 13.148 33.0373 14.1V19H31.8613V14.24C31.8613 13.596 31.7913 13.1387 31.6513 12.868C31.5113 12.588 31.2919 12.448 30.9933 12.448C30.6853 12.448 30.4379 12.602 30.2513 12.91C30.0739 13.2087 29.9853 13.6613 29.9853 14.268V19H28.8093V14.24C28.8093 13.6053 28.7393 13.148 28.5993 12.868C28.4686 12.588 28.2493 12.448 27.9413 12.448C27.6333 12.448 27.3859 12.602 27.1993 12.91C27.0219 13.2087 26.9333 13.6613 26.9333 14.268V19H25.7573V11.58Z" fill="#FFDC83"/>
<mask id="path-3-inside-1_2074_1475" fill="white">
<path d="M42 0H106C107.657 0 109 1.34315 109 3V26C109 27.6569 107.657 29 106 29H42V0Z"/>
</mask>
<path d="M42 0H106C107.657 0 109 1.34315 109 3V26C109 27.6569 107.657 29 106 29H42V0Z" fill="#FFDC83"/>
<path d="M42 -1H106C108.209 -1 110 0.790861 110 3H108C108 1.89543 107.105 1 106 1H42V-1ZM110 26C110 28.2091 108.209 30 106 30H42V28H106C107.105 28 108 27.1046 108 26H110ZM42 29V0V29ZM106 -1C108.209 -1 110 0.790861 110 3V26C110 28.2091 108.209 30 106 30V28C107.105 28 108 27.1046 108 26V3C108 1.89543 107.105 1 106 1V-1Z" fill="#635943" mask="url(#path-3-inside-1_2074_1475)"/>
<path d="M50.756 11.58H52.044L54.2 17.796L56.356 11.58H57.644L54.942 19H53.458L50.756 11.58ZM59.2345 17.852H62.3705V11.636H59.7665V10.6H61.1105C61.6425 10.6 62.0205 10.4833 62.2445 10.25C62.4779 10.0167 62.5945 9.62 62.5945 9.06H63.5745V17.852H65.9545V19H59.2345V17.852ZM70.1491 17.32H71.8291V19H70.1491V17.32ZM79.3556 19.224C78.4036 19.224 77.6289 18.972 77.0316 18.468C76.4343 17.9547 76.0983 17.278 76.0236 16.438L77.2836 16.354C77.3489 16.9047 77.5636 17.3247 77.9276 17.614C78.2916 17.9033 78.7676 18.048 79.3556 18.048C80.0089 18.048 80.5269 17.8473 80.9096 17.446C81.2923 17.0447 81.4836 16.4987 81.4836 15.808C81.4836 15.108 81.2969 14.5573 80.9236 14.156C80.5503 13.7453 80.0369 13.54 79.3836 13.54C78.9823 13.54 78.6043 13.638 78.2496 13.834C77.8949 14.03 77.6383 14.3007 77.4796 14.646H76.1916L76.8496 9.06H82.1416V10.236H77.9556L77.5916 13.232C77.8249 12.9613 78.1189 12.756 78.4736 12.616C78.8283 12.4667 79.1876 12.392 79.5516 12.392C80.1769 12.392 80.7323 12.5413 81.2176 12.84C81.7029 13.1293 82.0763 13.5353 82.3376 14.058C82.6083 14.5713 82.7436 15.1547 82.7436 15.808C82.7436 16.4707 82.5989 17.0633 82.3096 17.586C82.0203 18.0993 81.6189 18.5007 81.1056 18.79C80.5923 19.0793 80.0089 19.224 79.3556 19.224ZM86.9381 17.32H88.6181V19H86.9381V17.32ZM96.1727 19.224C95.454 19.224 94.8333 19.0187 94.3107 18.608C93.788 18.188 93.382 17.5907 93.0927 16.816C92.8127 16.032 92.6727 15.108 92.6727 14.044C92.6727 12.98 92.8127 12.056 93.0927 11.272C93.382 10.488 93.788 9.886 94.3107 9.466C94.8427 9.046 95.4633 8.836 96.1727 8.836C96.882 8.836 97.498 9.046 98.0207 9.466C98.5527 9.886 98.9587 10.488 99.2387 11.272C99.528 12.056 99.6727 12.98 99.6727 14.044C99.6727 15.108 99.528 16.032 99.2387 16.816C98.9587 17.5907 98.5573 18.188 98.0347 18.608C97.512 19.0187 96.8913 19.224 96.1727 19.224ZM96.1727 18.048C96.8727 18.048 97.4187 17.6887 97.8107 16.97C98.212 16.2513 98.4127 15.276 98.4127 14.044C98.4127 13.1013 98.296 12.3033 98.0627 11.65L94.8707 17.46C95.2347 17.852 95.6687 18.048 96.1727 18.048ZM93.9327 14.044C93.9327 14.9773 94.0493 15.7707 94.2827 16.424L97.4747 10.614C97.12 10.2127 96.686 10.012 96.1727 10.012C95.4727 10.012 94.922 10.376 94.5207 11.104C94.1287 11.8227 93.9327 12.8027 93.9327 14.044Z" fill="#100D0D"/>
</svg>
