<svg width="194" height="57" viewBox="0 0 194 57" fill="none" xmlns="http://www.w3.org/2000/svg">
<path d="M72 30.2216H74.525V31.2316C74.525 32.4184 75.5098 33.4031 76.6965 33.4031H78.3882C79.676 33.4031 80.585 32.5951 80.585 31.4841C80.585 27.9996 72.2525 27.2421 72.2525 22.4446C72.2525 19.9701 74.1967 18.2531 76.949 18.2531H78.1357C80.7365 18.2531 82.8575 20.3489 82.8575 22.9496V23.7071H80.3325V22.9496C80.3325 21.7376 79.3478 20.7781 78.1357 20.7781H76.949C75.5855 20.7781 74.7775 21.4094 74.7775 22.4446C74.7775 25.1211 83.11 26.1564 83.11 31.4841C83.11 34.0091 81.0647 35.9281 78.3882 35.9281H76.6965C74.0958 35.9281 72 33.8324 72 31.2316V30.2216Z" fill="white"/>
<path d="M95.4726 25.5756H90.8014V31.3831C90.8014 32.5194 91.6851 33.4031 92.8214 33.4031H95.4726V35.9281H92.8214C90.2964 35.9281 88.2764 33.9081 88.2764 31.3831V25.5756H84.3626V23.0506H88.2764V19.7681H90.8014V23.0506H95.4726V25.5756Z" fill="white"/>
<path d="M105.942 23.0506H108.467V35.9281H105.942V34.5141L103.846 35.9281H101.902C99.4018 35.9281 97.3565 33.8829 97.3565 31.3831V27.5956C97.3565 25.0706 99.4018 23.0506 101.902 23.0506H103.846L105.942 24.4646V23.0506ZM103.063 33.4031L105.942 31.4589V27.5199L103.063 25.5756H101.902C100.791 25.5756 99.8815 26.4846 99.8815 27.5956V31.3831C99.8815 32.4941 100.791 33.4031 101.902 33.4031H103.063Z" fill="white"/>
<path d="M120.198 23.0506H122.723V36.6604C122.723 39.1601 120.703 41.2306 118.178 41.2306H116.158C113.658 41.2306 111.613 39.1601 111.613 36.6604H114.138C114.138 37.7714 115.047 38.6804 116.158 38.6804H118.178C119.289 38.6804 120.198 37.7714 120.198 36.6604V34.5141L118.102 35.9281H116.158C113.658 35.9281 111.613 33.8829 111.613 31.3831V27.5956C111.613 25.0706 113.658 23.0506 116.158 23.0506H118.102L120.198 24.4646V23.0506ZM117.319 33.4031L120.198 31.4589V27.5199L117.319 25.5756H116.158C115.047 25.5756 114.138 26.4846 114.138 27.5956V31.3831C114.138 32.4941 115.047 33.4031 116.158 33.4031H117.319Z" fill="white"/>
<path d="M136.979 27.3431V30.0701H128.394V31.3579C128.394 32.4689 129.303 33.3779 130.414 33.3779H132.434C133.545 33.3779 134.454 32.4689 134.454 31.3579V31.1054H136.979V31.3579C136.979 33.8576 134.959 35.9281 132.434 35.9281H130.414C127.915 35.9281 125.869 33.8576 125.869 31.3579V27.5956C125.869 25.0706 127.915 23.0506 130.414 23.0506H132.434C134.884 23.0506 136.853 24.9444 136.979 27.3431ZM134.454 28.0501V27.5956C134.454 26.4594 133.571 25.5756 132.434 25.5756H130.414C129.278 25.5756 128.394 26.4846 128.394 27.5956V28.0501H134.454Z" fill="white"/>
<path d="M146.691 23.0506C149.19 23.0506 151.236 25.0706 151.236 27.5956V35.9281H148.711V27.5956C148.711 26.4846 147.802 25.5756 146.691 25.5756H145.529L142.651 27.5199V35.9281H140.126V18.0006H142.651V24.4646L144.746 23.0506H146.691Z" fill="white"/>
<path d="M162.967 23.0506H165.492V35.9281H162.967V34.5141L160.871 35.9281H158.927C156.427 35.9281 154.382 33.8829 154.382 31.3831V27.5956C154.382 25.0706 156.427 23.0506 158.927 23.0506H160.871L162.967 24.4646V23.0506ZM160.089 33.4031L162.967 31.4589V27.5199L160.089 25.5756H158.927C157.816 25.5756 156.907 26.4846 156.907 27.5956V31.3831C156.907 32.4941 157.816 33.4031 158.927 33.4031H160.089Z" fill="white"/>
<path d="M175.203 23.0506C177.703 23.0506 179.748 25.0706 179.748 27.5956V35.9281H177.223V27.5956C177.223 26.4846 176.314 25.5756 175.203 25.5756H174.042L171.163 27.5199V35.9281H168.638V23.0506H171.163V24.4646L173.259 23.0506H175.203Z" fill="white"/>
<path d="M191.48 18.0006H194.005V35.9281H191.48V34.5141L189.384 35.9281H187.44C184.94 35.9281 182.895 33.8829 182.895 31.3831V27.5956C182.895 25.0706 184.94 23.0506 187.44 23.0506H189.384L191.48 24.4646V18.0006ZM188.601 33.4031L191.48 31.4589V27.5199L188.601 25.5756H187.44C186.329 25.5756 185.42 26.4846 185.42 27.5956V31.3831C185.42 32.4941 186.329 33.4031 187.44 33.4031H188.601Z" fill="white"/>
<rect width="57" height="57" fill="#FFC83C"/>
<path d="M40.7828 34.5435C40.7957 34.8326 40.7931 35.1346 40.7802 35.4418C40.7957 35.1423 40.7957 34.8404 40.7828 34.5435ZM21.1019 24.4643C21.1019 24.4643 21.1045 24.4643 21.1045 24.4695C21.1174 24.3921 21.1303 24.3146 21.1458 24.2346C21.1277 24.3121 21.1148 24.3869 21.1019 24.4643ZM21.1458 24.2346C21.1768 24.0798 21.2129 23.9223 21.2568 23.77C21.2129 23.9197 21.1742 24.0746 21.1458 24.2346Z" fill="white"/>
<path d="M40.7803 35.4411C40.7726 35.6063 40.7623 35.7741 40.7494 35.9418C40.7184 36.3058 40.6771 36.6723 40.6229 37.0336C40.61 37.124 40.5945 37.2117 40.5816 37.2969C40.5584 37.4389 40.5326 37.5808 40.5067 37.7176C40.5067 37.7383 40.499 37.7564 40.4964 37.7744C40.468 37.9215 40.4371 38.0738 40.4061 38.2261C40.388 38.301 40.3725 38.3784 40.3545 38.4558C40.3003 38.6856 40.2435 38.9127 40.1841 39.1321C40.1351 39.3153 40.0834 39.4909 40.0292 39.656C39.9544 39.8909 39.8744 40.1026 39.7969 40.2729C39.7763 40.3168 39.7556 40.3607 39.735 40.3994C39.704 40.4614 39.6731 40.5156 39.6447 40.562C38.3515 45.9023 34.7406 48.5041 28.6156 48.5041C28.4143 48.5041 28.2104 48.5015 28.0039 48.4963C20.3767 48.2873 17.997 43.9768 17.4498 42.6579C16.4844 40.3426 15.9527 34.2874 15.9527 30.9861C15.9527 27.9379 15.2842 24.9386 15.2765 24.9076L15.2274 24.6547C14.9229 23.1473 14.466 20.8708 13.9137 18.4833C13.6246 17.2263 13.8491 16.0596 14.5331 15.2853C15.1061 14.6349 15.9605 14.3303 16.9387 14.4258C19.1327 14.6452 19.6798 17.3837 20.0051 19.0201C20.1238 19.6086 20.2167 20.2281 20.3096 20.8295C20.5006 22.0684 20.6968 23.3461 21.102 24.4637C21.102 24.4637 21.1029 24.4654 21.1046 24.4689C21.1175 24.3914 21.1304 24.314 21.1459 24.234C21.1769 24.0791 21.213 23.9217 21.2569 23.7694C21.2801 23.6919 21.3034 23.6171 21.3292 23.5422C21.3524 23.4777 21.3782 23.4132 21.404 23.3512C21.4195 23.3151 21.435 23.279 21.4531 23.2428C21.4634 23.2144 21.4789 23.186 21.4918 23.1577C21.5124 23.1189 21.5331 23.0802 21.5537 23.0441C21.5589 23.0312 21.5666 23.0183 21.577 23.0079C21.5976 22.9667 21.6208 22.9279 21.6466 22.8918C21.6802 22.8376 21.7163 22.7886 21.7551 22.7421C22.612 21.6709 23.505 21.6709 24.0987 21.6709C24.411 21.6709 25.9209 21.7355 26.703 22.9047C26.7546 22.9847 26.8037 23.0673 26.8476 23.1551C26.8837 22.9589 26.9224 22.7834 26.9689 22.6337C27.0489 22.3653 27.1625 22.1304 27.2967 21.9239C27.3199 21.8903 27.3431 21.8568 27.3664 21.8232C27.4154 21.7587 27.467 21.6967 27.5186 21.6374C28.1226 20.9586 29.0183 20.6979 29.7461 20.6979C29.8881 20.6979 30.0688 20.7056 30.2753 20.734C30.3166 20.7392 30.3579 20.7443 30.3992 20.7546C30.4379 20.7598 30.4766 20.765 30.5153 20.7753C30.5773 20.7856 30.6392 20.8011 30.7011 20.8166C30.7657 20.8321 30.8302 20.8502 30.8947 20.8708C30.9928 20.9018 31.0935 20.9353 31.1941 20.9792C31.2251 20.9921 31.2587 21.0076 31.2922 21.0231C31.3258 21.0386 31.3593 21.0541 31.3929 21.0721C31.7929 21.2709 32.1904 21.578 32.5105 22.04C32.5389 22.0788 32.5647 22.1175 32.5905 22.1588C32.5724 21.5651 32.5415 20.8811 32.5105 20.1403C32.4202 17.9464 32.3143 15.4608 32.4098 13.5405C32.5828 10.0947 33.6462 8.48926 35.7549 8.48926C38.2999 8.48926 38.5942 11.2872 38.5942 13.3933C38.5942 16.5475 38.5942 20.8682 38.8523 24.474C38.8781 24.8431 38.9065 25.3 38.9374 25.8059C39.0355 27.3829 39.1697 29.5407 39.3659 30.9087C39.3969 31.11 39.4356 31.3681 39.482 31.6675C39.4924 31.6753 39.5027 31.6856 39.5104 31.6959C39.7298 31.8973 39.9286 32.1089 40.0964 32.3283C40.1273 32.367 40.1531 32.4032 40.1789 32.4419C40.2848 32.589 40.3751 32.7387 40.45 32.8936C40.468 32.9323 40.4861 32.971 40.5016 33.0071C40.5351 33.082 40.5635 33.1594 40.5893 33.2369C40.6022 33.2756 40.6152 33.3143 40.6255 33.353C40.6358 33.3917 40.6461 33.4304 40.6539 33.4692C40.6926 33.6395 40.721 33.8202 40.7416 34.0034C40.7545 34.117 40.7649 34.2332 40.7726 34.3519C40.7778 34.4138 40.7829 34.4784 40.7829 34.5429C40.7958 34.832 40.7932 35.134 40.7803 35.4411Z" fill="white"/>
<path d="M21.1458 24.2346C21.1768 24.0798 21.2129 23.9223 21.2568 23.77C21.2129 23.9197 21.1742 24.0746 21.1458 24.2346ZM21.1019 24.4643C21.1019 24.4643 21.1045 24.4643 21.1045 24.4695C21.1174 24.3921 21.1303 24.3146 21.1458 24.2346C21.1277 24.3121 21.1148 24.3869 21.1019 24.4643ZM39.5155 39.5767C39.7323 38.934 39.9698 37.9635 40.1195 36.9336C39.9646 37.9687 39.722 38.9417 39.5155 39.5767ZM40.7828 34.5435C40.7957 34.8326 40.7931 35.1346 40.7802 35.4418C40.7957 35.1423 40.7957 34.8404 40.7828 34.5435Z" fill="black"/>
<path d="M40.7829 34.5429C40.7829 34.4784 40.7778 34.4138 40.7726 34.3519C40.7649 34.2332 40.7545 34.117 40.7416 34.0034C40.721 33.8202 40.6926 33.6395 40.6539 33.4692C40.6461 33.4304 40.6358 33.3917 40.6255 33.353C40.6152 33.3143 40.6022 33.2756 40.5893 33.2369C40.5635 33.1594 40.5351 33.082 40.5016 33.0071C40.4861 32.971 40.468 32.9323 40.45 32.8936C40.3751 32.7387 40.2848 32.589 40.1789 32.4419C40.1531 32.4032 40.1273 32.367 40.0964 32.3283C39.9286 32.1089 39.7298 31.8973 39.5104 31.6959C39.5027 31.6856 39.4924 31.6753 39.482 31.6675C39.4356 31.3681 39.3969 31.11 39.3659 30.9087C39.1697 29.5407 39.0355 27.3829 38.9374 25.8059C38.9065 25.3 38.8781 24.8431 38.8523 24.474C38.5942 20.8682 38.5942 16.5475 38.5942 13.3933C38.5942 11.2872 38.2999 8.48926 35.7549 8.48926C33.6462 8.48926 32.5828 10.0947 32.4098 13.5405C32.3143 15.4608 32.4202 17.9464 32.5105 20.1403C32.5415 20.8811 32.5724 21.5651 32.5905 22.1588C32.5647 22.1175 32.5389 22.0788 32.5105 22.04C32.1904 21.578 31.7929 21.2709 31.3929 21.0721C31.3593 21.0541 31.3258 21.0386 31.2922 21.0231C31.2587 21.0076 31.2251 20.9921 31.1941 20.9792C31.0935 20.9353 30.9928 20.9018 30.8947 20.8708C30.8302 20.8502 30.7657 20.8321 30.7011 20.8166C30.6392 20.8011 30.5773 20.7856 30.5153 20.7753C30.4766 20.765 30.4379 20.7598 30.3992 20.7546C30.3579 20.7443 30.3166 20.7392 30.2753 20.734C30.0688 20.7056 29.8881 20.6979 29.7461 20.6979C29.0183 20.6979 28.1226 20.9586 27.5186 21.6374C27.467 21.6967 27.4154 21.7587 27.3664 21.8232C27.3431 21.8568 27.3199 21.8903 27.2967 21.9239C27.1625 22.1304 27.0489 22.3653 26.9689 22.6337C26.9224 22.7834 26.8837 22.9589 26.8476 23.1551C26.8037 23.0673 26.7546 22.9847 26.703 22.9047C25.9209 21.7355 24.411 21.6709 24.0987 21.6709C23.505 21.6709 22.612 21.6709 21.7551 22.7421C21.7163 22.7886 21.6802 22.8376 21.6466 22.8918C21.6208 22.9279 21.5976 22.9667 21.577 23.0079C21.5666 23.0183 21.5589 23.0312 21.5537 23.0441C21.5331 23.0802 21.5124 23.1189 21.4918 23.1577C21.4789 23.186 21.4634 23.2144 21.4531 23.2428C21.435 23.279 21.4195 23.3151 21.404 23.3512C21.3782 23.4132 21.3524 23.4777 21.3292 23.5422C21.3034 23.6171 21.2801 23.6919 21.2569 23.7694C21.213 23.9217 21.1769 24.0791 21.1459 24.234C21.1304 24.314 21.1175 24.3914 21.1046 24.4689C21.1046 24.4689 21.1038 24.4671 21.102 24.4637C20.6968 23.3461 20.5006 22.0684 20.3096 20.8295C20.2167 20.2281 20.1238 19.6086 20.0051 19.0201C19.6798 17.3837 19.1327 14.6452 16.9387 14.4258C15.9605 14.3303 15.1061 14.6349 14.5331 15.2853C13.8491 16.0596 13.6246 17.2263 13.9137 18.4833C14.466 20.8708 14.9229 23.1473 15.2274 24.6547L15.2765 24.9076C15.2842 24.9386 15.9527 27.9379 15.9527 30.9861C15.9527 34.2874 16.4844 40.3426 17.4498 42.6579C17.997 43.9768 20.3767 48.2873 28.0039 48.4963C28.2104 48.5015 28.4143 48.5041 28.6156 48.5041C34.7406 48.5041 38.3515 45.9023 39.6447 40.562C39.6731 40.5156 39.704 40.4614 39.735 40.3994C39.7556 40.3607 39.7763 40.3168 39.7969 40.2729C39.8744 40.1026 39.9544 39.8909 40.0292 39.656C40.0834 39.4909 40.1351 39.3153 40.1841 39.1321C40.2435 38.9127 40.3003 38.6856 40.3545 38.4558C40.3725 38.3784 40.388 38.301 40.4061 38.2261C40.4371 38.0738 40.468 37.9215 40.4964 37.7744C40.499 37.7564 40.5042 37.7383 40.5067 37.7176C40.5326 37.5808 40.5584 37.4389 40.5816 37.2969C40.5945 37.2117 40.61 37.124 40.6229 37.0336C40.6771 36.6723 40.7184 36.3058 40.7494 35.9418C40.7623 35.7741 40.7726 35.6063 40.7803 35.4411C40.7932 35.134 40.7958 34.832 40.7829 34.5429ZM32.9261 13.5663C33.13 9.52428 34.5444 9.00548 35.7549 9.00548C37.3604 9.00548 38.0779 10.358 38.0779 13.3933C38.0779 16.4287 38.0779 20.8889 38.336 24.5102C38.3619 24.8792 38.3902 25.3335 38.4238 25.8394C38.5219 27.4242 38.6561 29.5949 38.8548 30.9836C38.8652 31.0481 38.8755 31.1178 38.8858 31.1926C37.2907 30.0389 35.0787 29.3162 34.1211 29.1432C33.9353 29.1097 33.6255 29.0864 33.228 29.0684C33.4139 27.5894 33.4836 25.1812 33.1196 23.5371C33.1222 23.5216 33.1222 23.5061 33.1222 23.4932C33.1351 22.7137 33.0861 21.5109 33.0267 20.1197C32.9364 17.9361 32.8331 15.4634 32.9261 13.5663ZM27.2063 24.4482V24.443C27.2218 24.203 27.2425 23.9733 27.2709 23.7565C27.276 23.6997 27.2838 23.6455 27.2915 23.5939C27.3018 23.5138 27.3147 23.4364 27.3302 23.3616C27.3431 23.2867 27.356 23.2119 27.3741 23.1422C27.387 23.0751 27.4025 23.0105 27.418 22.946C27.4309 22.8892 27.4464 22.835 27.4619 22.7834C27.8103 21.6245 28.9099 21.2141 29.7461 21.2141C30.2572 21.2141 31.3851 21.338 32.0872 22.3394C32.1672 22.4504 32.2395 22.5743 32.304 22.7085C32.3272 22.7524 32.3479 22.7989 32.3685 22.8453C32.3892 22.8918 32.4098 22.9434 32.4279 22.9925C32.464 23.088 32.4976 23.186 32.526 23.2919C32.5905 23.5113 32.6447 23.7513 32.6912 24.0068C32.8176 24.7424 32.8693 25.6045 32.8693 26.4486C32.8693 27.4087 32.8047 28.3457 32.7118 29.0529C31.2561 29.0168 29.0957 29.0503 27.5057 29.0839C27.356 28.2553 27.2502 27.321 27.2038 26.4021C27.1702 25.7233 27.1676 25.0573 27.2063 24.4482ZM21.5305 25.4652C21.5331 25.3851 21.5382 25.3051 21.5434 25.2251C21.5563 25.0264 21.5744 24.8328 21.6002 24.6444C21.6028 24.6315 21.6053 24.6211 21.6053 24.6108C21.6234 24.4869 21.6441 24.3656 21.6699 24.252C21.6828 24.1901 21.6983 24.1281 21.7112 24.0688C21.7396 23.9526 21.7705 23.8416 21.8093 23.7384C21.8273 23.6842 21.8454 23.6326 21.866 23.5835C21.8867 23.5319 21.9073 23.4829 21.9306 23.4364C21.9538 23.39 21.977 23.3461 22.0003 23.3022C22.0493 23.2144 22.1009 23.137 22.1577 23.0647C22.2016 23.0105 22.2455 22.9589 22.2893 22.9099C22.3332 22.8608 22.3771 22.8144 22.421 22.7757C22.5087 22.6879 22.5939 22.6182 22.6791 22.5563C22.9036 22.3911 23.123 22.3007 23.3347 22.2517H23.3373C23.407 22.2336 23.4766 22.2207 23.5463 22.213C23.7373 22.1872 23.9206 22.1872 24.0987 22.1872C24.3542 22.1872 25.5596 22.2362 26.2152 23.1086C26.2849 23.199 26.3468 23.2996 26.401 23.408C26.4217 23.4493 26.4397 23.4906 26.4578 23.5293C26.5069 23.6377 26.5456 23.741 26.574 23.8442C26.5869 23.8752 26.5946 23.9088 26.6024 23.9397C26.6153 23.981 26.623 24.0197 26.6307 24.0585C26.6411 24.0998 26.6488 24.1411 26.6566 24.1824C26.6617 24.2211 26.6695 24.2572 26.6746 24.2959C26.6798 24.3398 26.685 24.3863 26.6875 24.4301C26.6953 24.4972 26.7004 24.5644 26.703 24.6315C26.703 24.6469 26.7056 24.6624 26.7056 24.6779C26.703 24.6805 26.703 24.6857 26.7056 24.6882C26.7004 24.7941 26.6979 24.9025 26.6953 25.0135V25.0548C26.6927 25.1554 26.6901 25.2561 26.6901 25.3593V25.5348C26.6901 25.6484 26.6927 25.762 26.6953 25.8781C26.6953 25.9943 26.7004 26.1104 26.7056 26.2292C26.7185 26.6783 26.7469 27.1377 26.7882 27.5997C26.8218 27.9637 26.8785 28.5083 26.974 29.0968C26.1145 29.1174 25.5131 29.1355 25.4305 29.1381C24.5323 29.1381 23.6238 29.7575 23.6238 30.9448C23.6238 31.2701 23.6909 31.6495 23.8277 32.0418C23.3218 31.8327 22.7875 31.3991 22.39 30.4028C22.2119 29.9589 22.0648 29.5072 21.9435 29.009C21.8196 28.5134 21.7189 27.9714 21.6286 27.3468C21.546 26.7635 21.5073 26.1027 21.5305 25.4652ZM40.277 35.2166C40.2744 35.343 40.2693 35.4721 40.2615 35.6011C40.2615 35.6089 40.259 35.6192 40.259 35.6295C40.2512 35.7612 40.2409 35.8928 40.2306 36.0244C40.228 36.0399 40.228 36.0554 40.2254 36.0709C40.1996 36.3548 40.1635 36.6413 40.1222 36.9227C40.1222 36.9278 40.1222 36.9304 40.1196 36.933C39.9699 37.9628 39.7324 38.9333 39.5156 39.576C39.4769 39.6922 39.4382 39.8006 39.402 39.8935C39.384 39.9426 39.3633 39.989 39.3453 40.0303C39.3194 40.0923 39.2962 40.1439 39.2704 40.1878C39.2472 40.2368 39.2239 40.2729 39.2007 40.2962C39.2007 40.2987 39.1955 40.3039 39.193 40.3065L39.1465 40.3684V40.4252C38.6742 42.3946 37.2417 48.2305 28.0194 47.9801C20.702 47.7814 18.4435 43.7058 17.9247 42.4617C16.9878 40.2058 16.469 34.2461 16.469 30.9861C16.469 27.7262 15.7875 24.825 15.7824 24.7992L15.7333 24.5514C15.4288 23.0441 14.9693 20.7624 14.4144 18.3671C14.1692 17.2908 14.3576 16.2661 14.9203 15.626C15.3281 15.164 15.896 14.9239 16.5774 14.9239C16.678 14.9239 16.7813 14.9291 16.8871 14.942C18.5596 15.1072 19.112 17.1876 19.4992 19.1234C19.6153 19.699 19.7082 20.3133 19.7986 20.9069C20.0206 22.3472 20.2477 23.8339 20.8052 25.1115C20.8542 25.2251 20.9239 25.3309 21.0117 25.4316C20.9833 26.1182 21.0298 26.8177 21.1175 27.4191C21.3008 28.7148 21.5382 29.6646 21.9125 30.5964C22.3771 31.7579 23.0766 32.4238 24.1064 32.669C24.5452 33.4795 25.2963 34.2357 26.3933 34.548C27.3302 34.8165 28.4453 34.8165 29.4312 34.8165C30.3191 34.8165 31.1606 34.8165 31.4832 35.0307C32.1724 35.4902 32.1595 35.9728 32.144 36.4374C32.144 36.4994 32.1414 36.5639 32.1414 36.6233H32.6576C32.6576 36.5691 32.6602 36.5097 32.6602 36.4503C32.6757 35.9315 32.6963 35.2191 31.7671 34.6023C31.3154 34.3003 30.4843 34.3003 29.4312 34.3003C28.4814 34.3003 27.4025 34.3003 26.5327 34.0525C25.7454 33.8279 25.1595 33.322 24.7672 32.7516C24.6459 32.5761 24.5426 32.3928 24.4575 32.2122C24.2432 31.7605 24.14 31.3062 24.14 30.9448C24.14 30.0569 24.8085 29.6543 25.4383 29.6543C25.4589 29.6543 26.1171 29.6336 27.0618 29.613C27.2347 29.6078 27.4154 29.6027 27.6038 29.6001C29.1654 29.5665 31.2329 29.5356 32.6318 29.5639C32.8176 29.5691 32.9906 29.5743 33.1506 29.5794C33.5455 29.5949 33.8527 29.6181 34.0282 29.6491C35.1768 29.8582 37.5591 30.7048 39.002 31.9282C39.0329 31.9566 39.0639 31.985 39.0949 32.0134C39.1439 32.0547 39.1904 32.096 39.2368 32.145H39.2394C39.2781 32.1812 39.3169 32.2173 39.3504 32.256C39.3582 32.2612 39.3633 32.2664 39.3659 32.2715C39.3995 32.3051 39.4304 32.336 39.4588 32.3696C39.495 32.4083 39.5285 32.447 39.5621 32.4858C39.593 32.5193 39.6188 32.5529 39.6447 32.5864C39.6731 32.62 39.6963 32.6509 39.7195 32.6845C39.7453 32.7181 39.7686 32.7516 39.7892 32.7852C39.815 32.8187 39.8357 32.8523 39.8537 32.8858C39.8976 32.9503 39.9337 33.0175 39.9673 33.0846C39.9983 33.1465 40.0267 33.2085 40.0525 33.2704C40.0525 33.2782 40.0576 33.2859 40.0602 33.2911C40.0731 33.3246 40.0834 33.3556 40.0938 33.3891C40.1144 33.4537 40.1325 33.5182 40.148 33.5827C40.2564 34.068 40.2925 34.6281 40.277 35.2166Z" fill="black"/>
</svg>
